<?xml version="1.0" encoding="UTF-8" standalone="no"?>
<svg
   xmlns:dc="http://purl.org/dc/elements/1.1/"
   xmlns:cc="http://creativecommons.org/ns#"
   xmlns:rdf="http://www.w3.org/1999/02/22-rdf-syntax-ns#"
   xmlns:svg="http://www.w3.org/2000/svg"
   xmlns="http://www.w3.org/2000/svg"
   xmlns:sodipodi="http://sodipodi.sourceforge.net/DTD/sodipodi-0.dtd"
   xmlns:inkscape="http://www.inkscape.org/namespaces/inkscape"
   height="96"
   viewBox="0 0 24 24"
   width="96"
   id="svg2"
   version="1.1"
   inkscape:version="0.91 r13725"
   sodipodi:docname="devices.svg"
   style="fill:#000000">
  <metadata
     id="metadata12">
    <rdf:RDF>
      <cc:Work
         rdf:about="">
        <dc:format>image/svg+xml</dc:format>
        <dc:type
           rdf:resource="http://purl.org/dc/dcmitype/StillImage" />
      </cc:Work>
    </rdf:RDF>
  </metadata>
  <defs
     id="defs10" />
  <sodipodi:namedview
     pagecolor="#ffffff"
     bordercolor="#666666"
     borderopacity="1"
     objecttolerance="10"
     gridtolerance="10"
     guidetolerance="10"
     inkscape:pageopacity="0"
     inkscape:pageshadow="2"
     inkscape:window-width="1920"
     inkscape:window-height="1011"
     id="namedview8"
     showgrid="false"
     inkscape:zoom="9.8333333"
     inkscape:cx="12"
     inkscape:cy="12"
     inkscape:window-x="0"
     inkscape:window-y="0"
     inkscape:window-maximized="1"
     inkscape:current-layer="svg2" />
  <path
     d="M 0,0 24,0 24,24 0,24 Z"
     id="path4"
     inkscape:connector-curvature="0"
     style="fill:none" />
  <path
     d="M 4,6 22,6 22,4 4,4 C 2.9,4 2,4.9 2,6 l 0,11 -2,0 0,3 14,0 0,-3 L 4,17 4,6 Z m 19,2 -6,0 c -0.55,0 -1,0.45 -1,1 l 0,10 c 0,0.55 0.45,1 1,1 l 6,0 c 0.55,0 1,-0.45 1,-1 L 24,9 C 24,8.45 23.55,8 23,8 Z m -1,9 -4,0 0,-7 4,0 0,7 z"
     id="path6"
     inkscape:connector-curvature="0"
     style="fill:#757575;fill-opacity:1" />
</svg>
