<?xml version="1.0" encoding="UTF-8" standalone="no"?>
<svg
   xmlns:dc="http://purl.org/dc/elements/1.1/"
   xmlns:cc="http://creativecommons.org/ns#"
   xmlns:rdf="http://www.w3.org/1999/02/22-rdf-syntax-ns#"
   xmlns:svg="http://www.w3.org/2000/svg"
   xmlns="http://www.w3.org/2000/svg"
   xmlns:sodipodi="http://sodipodi.sourceforge.net/DTD/sodipodi-0.dtd"
   xmlns:inkscape="http://www.inkscape.org/namespaces/inkscape"
   height="96"
   viewBox="0 0 24 24"
   width="96"
   id="svg4186"
   version="1.1"
   inkscape:version="0.91 r13725"
   sodipodi:docname="help.svg"
   style="fill:#000000">
  <metadata
     id="metadata4196">
    <rdf:RDF>
      <cc:Work
         rdf:about="">
        <dc:format>image/svg+xml</dc:format>
        <dc:type
           rdf:resource="http://purl.org/dc/dcmitype/StillImage" />
      </cc:Work>
    </rdf:RDF>
  </metadata>
  <defs
     id="defs4194" />
  <sodipodi:namedview
     pagecolor="#ffffff"
     bordercolor="#666666"
     borderopacity="1"
     objecttolerance="10"
     gridtolerance="10"
     guidetolerance="10"
     inkscape:pageopacity="0"
     inkscape:pageshadow="2"
     inkscape:window-width="1920"
     inkscape:window-height="1011"
     id="namedview4192"
     showgrid="false"
     inkscape:zoom="4.328125"
     inkscape:cx="-18.840886"
     inkscape:cy="18.658723"
     inkscape:window-x="0"
     inkscape:window-y="0"
     inkscape:window-maximized="1"
     inkscape:current-layer="svg4186" />
  <path
     d="M 0,0 24,0 24,24 0,24 Z"
     id="path4188"
     inkscape:connector-curvature="0"
     style="fill:none" />
  <path
     d="m 11,18 2,0 0,-2 -2,0 0,2 z M 12,2 C 6.48,2 2,6.48 2,12 2,17.52 6.48,22 12,22 17.52,22 22,17.52 22,12 22,6.48 17.52,2 12,2 Z m 0,18 C 7.59,20 4,16.41 4,12 4,7.59 7.59,4 12,4 c 4.41,0 8,3.59 8,8 0,4.41 -3.59,8 -8,8 z M 12,6 C 9.79,6 8,7.79 8,10 l 2,0 c 0,-1.1 0.9,-2 2,-2 1.1,0 2,0.9 2,2 0,2 -3,1.75 -3,5 l 2,0 c 0,-2.25 3,-2.5 3,-5 0,-2.21 -1.79,-4 -4,-4 z"
     id="path4190"
     style="fill:#757575;fill-opacity:1"
     inkscape:connector-curvature="0" />
</svg>
