<?xml version="1.0" encoding="UTF-8" standalone="no"?>
<svg
   xmlns:dc="http://purl.org/dc/elements/1.1/"
   xmlns:cc="http://creativecommons.org/ns#"
   xmlns:rdf="http://www.w3.org/1999/02/22-rdf-syntax-ns#"
   xmlns:svg="http://www.w3.org/2000/svg"
   xmlns="http://www.w3.org/2000/svg"
   xmlns:xlink="http://www.w3.org/1999/xlink"
   xmlns:sodipodi="http://sodipodi.sourceforge.net/DTD/sodipodi-0.dtd"
   xmlns:inkscape="http://www.inkscape.org/namespaces/inkscape"
   height="96"
   viewBox="0 0 24 24"
   width="96"
   id="svg4237"
   version="1.1"
   inkscape:version="0.91 r13725"
   sodipodi:docname="smartlife.svg"
   style="fill:#000000">
  <metadata
     id="metadata4249">
    <rdf:RDF>
      <cc:Work
         rdf:about="">
        <dc:format>image/svg+xml</dc:format>
        <dc:type
           rdf:resource="http://purl.org/dc/dcmitype/StillImage" />
      </cc:Work>
    </rdf:RDF>
  </metadata>
  <sodipodi:namedview
     pagecolor="#ffffff"
     bordercolor="#666666"
     borderopacity="1"
     objecttolerance="10"
     gridtolerance="10"
     guidetolerance="10"
     inkscape:pageopacity="0"
     inkscape:pageshadow="2"
     inkscape:window-width="1920"
     inkscape:window-height="1011"
     id="namedview4247"
     showgrid="false"
     inkscape:zoom="9.8333333"
     inkscape:cx="12"
     inkscape:cy="12"
     inkscape:window-x="0"
     inkscape:window-y="0"
     inkscape:window-maximized="1"
     inkscape:current-layer="svg4237" />
  <defs
     id="defs4239">
    <path
       d="M 0,0 24,0 24,24 0,24 0,0 Z"
       id="a"
       inkscape:connector-curvature="0" />
  </defs>
  <clipPath
     id="b">
    <use
       overflow="visible"
       xlink:href="#a"
       id="use4243"
       style="overflow:visible"
       x="0"
       y="0"
       width="100%"
       height="100%" />
  </clipPath>
  <path
     clip-path="url(#b)"
     d="m 9,21 c 0,0.55 0.45,1 1,1 l 4,0 c 0.55,0 1,-0.45 1,-1 l 0,-1 -6,0 0,1 z M 12,2 C 8.14,2 5,5.14 5,9 c 0,2.38 1.19,4.47 3,5.74 L 8,17 c 0,0.55 0.45,1 1,1 l 6,0 c 0.55,0 1,-0.45 1,-1 l 0,-2.26 C 17.81,13.47 19,11.38 19,9 19,5.14 15.86,2 12,2 Z M 14.85,13.1 14,13.7 14,16 10,16 10,13.7 9.15,13.1 C 7.8,12.16 7,10.63 7,9 7,6.24 9.24,4 12,4 c 2.76,0 5,2.24 5,5 0,1.63 -0.8,3.16 -2.15,4.1 z"
     id="path4245"
     inkscape:connector-curvature="0"
     style="fill:#757575;fill-opacity:1" />
</svg>
